<svg xmlns="http://www.w3.org/2000/svg" viewBox="0 0 32 32" id="locationpin"><path d="M16,32a1,1,0,0,1-.707-.293C14.832,31.246,4,20.318,4,12a12,12,0,0,1,24,0c0,8.318-10.832,19.246-11.293,19.707A1,1,0,0,1,16,32ZM16,2A10.011,10.011,0,0,0,6,12c0,6.354,7.611,15,10,17.553C18.388,27,26,18.348,26,12A10.011,10.011,0,0,0,16,2Z" fill="#fffdfd" class="color000000 svgShape"></path><path d="M16,17a5,5,0,1,1,5-5A5.006,5.006,0,0,1,16,17Zm0-8a3,3,0,1,0,3,3A3,3,0,0,0,16,9Z" fill="#fffdfd" class="color000000 svgShape"></path></svg>